<svg xmlns="http://www.w3.org/2000/svg" viewBox="0 0 1800 560" fill="none">
  <defs>
    <linearGradient id="blueTile" x1="186" x2="870" y1="78" y2="250" gradientUnits="userSpaceOnUse">
      <stop stop-color="#E8F0F6"/>
      <stop offset="0.18" stop-color="#A9C1D0"/>
      <stop offset="0.48" stop-color="#5E7E94"/>
      <stop offset="1" stop-color="#324B5B"/>
    </linearGradient>
    <linearGradient id="blueTileDark" x1="196" x2="820" y1="160" y2="328" gradientUnits="userSpaceOnUse">
      <stop stop-color="#8AA3B3"/>
      <stop offset="0.48" stop-color="#587284"/>
      <stop offset="1" stop-color="#223442"/>
    </linearGradient>
    <linearGradient id="timber" x1="978" x2="1652" y1="112" y2="324" gradientUnits="userSpaceOnUse">
      <stop stop-color="#EEE5D0"/>
      <stop offset="0.52" stop-color="#C8B28C"/>
      <stop offset="1" stop-color="#8F7250"/>
    </linearGradient>
    <linearGradient id="timberDark" x1="920" x2="1700" y1="140" y2="340" gradientUnits="userSpaceOnUse">
      <stop stop-color="#D8C6A1"/>
      <stop offset="1" stop-color="#6A543C"/>
    </linearGradient>
    <linearGradient id="ink" x1="118" x2="1680" y1="94" y2="356" gradientUnits="userSpaceOnUse">
      <stop stop-color="#1A2125"/>
      <stop offset="1" stop-color="#0A0F11"/>
    </linearGradient>
    <linearGradient id="underGlow" x1="420" x2="1442" y1="0" y2="0" gradientUnits="userSpaceOnUse">
      <stop stop-color="rgba(0,0,0,0)"/>
      <stop offset="0.26" stop-color="#CF9A68" stop-opacity=".34"/>
      <stop offset="0.62" stop-color="#7EB4C8" stop-opacity=".28"/>
      <stop offset="1" stop-color="rgba(0,0,0,0)"/>
    </linearGradient>
  </defs>

  <g opacity=".18">
    <path d="M190 324H1466" stroke="url(#underGlow)" stroke-width="28" stroke-linecap="round"/>
  </g>

  <g>
    <path d="M136 132H854" stroke="url(#ink)" stroke-width="18" stroke-linecap="round"/>
    <path d="M124 142L176 92L834 92L854 132H124V142Z" fill="url(#blueTile)" stroke="url(#ink)" stroke-width="9" stroke-linejoin="round"/>
    <path d="M120 142L92 170L120 186H840L876 156L852 132" fill="url(#blueTileDark)" stroke="url(#ink)" stroke-width="9" stroke-linejoin="round"/>
    <path d="M176 92C156 78 144 72 128 72C132 90 126 108 110 126" stroke="url(#ink)" stroke-width="9" stroke-linecap="round" stroke-linejoin="round"/>
    <path d="M260 110V176M302 110V176M344 110V176M386 110V176M428 110V176M470 110V176M512 110V176M554 110V176M596 110V176M638 110V176M680 110V176M722 110V176M764 110V176" stroke="#D9E6EE" stroke-opacity=".56" stroke-width="4" stroke-linecap="round"/>
    <path d="M180 152H840" stroke="#F5F0E6" stroke-opacity=".32" stroke-width="3" stroke-linecap="round"/>
    <path d="M166 182H820" stroke="#152127" stroke-opacity=".34" stroke-width="4" stroke-linecap="round"/>
  </g>

  <g>
    <path d="M884 112H1660" stroke="url(#ink)" stroke-width="15" stroke-linecap="round"/>
    <path d="M900 124H1640" stroke="#F6EEDB" stroke-opacity=".85" stroke-width="8" stroke-linecap="round"/>
    <path d="M924 152H1620" stroke="url(#timberDark)" stroke-width="13" stroke-linecap="round"/>
    <path d="M948 186H1592" stroke="url(#timberDark)" stroke-width="11" stroke-linecap="round"/>
    <path d="M968 220H1568" stroke="url(#timberDark)" stroke-width="10" stroke-linecap="round"/>
    <path d="M988 254H1542" stroke="url(#timberDark)" stroke-width="9" stroke-linecap="round"/>
    <path d="M908 124L884 150L916 176H1652L1678 150L1650 124" fill="url(#timber)" stroke="url(#ink)" stroke-width="8" stroke-linejoin="round"/>
    <path d="M974 138V282M1082 138V282M1190 138V282M1298 138V282M1406 138V282M1514 138V282" stroke="url(#ink)" stroke-width="8" stroke-linecap="round"/>
    <path d="M948 208L1010 154M1056 208L1118 154M1164 208L1226 154M1272 208L1334 154M1380 208L1442 154M1488 208L1550 154" stroke="#E4D4B8" stroke-opacity=".8" stroke-width="5" stroke-linecap="round"/>
    <path d="M974 236L1034 188M1082 236L1142 188M1190 236L1250 188M1298 236L1358 188M1406 236L1466 188" stroke="#B59062" stroke-opacity=".72" stroke-width="4" stroke-linecap="round"/>
  </g>

  <g>
    <path d="M156 242H1654" stroke="url(#ink)" stroke-width="16" stroke-linecap="round"/>
    <path d="M138 252L188 212H1616L1654 242L1634 272H124L138 252Z" fill="#D8C39F" stroke="url(#ink)" stroke-width="8" stroke-linejoin="round"/>
    <path d="M116 272L88 298L124 322H1622L1662 292L1636 272" fill="#485A67" stroke="url(#ink)" stroke-width="8" stroke-linejoin="round"/>
    <path d="M212 228V304M254 228V304M296 228V304M338 228V304M380 228V304M422 228V304M464 228V304M506 228V304M548 228V304M590 228V304M632 228V304M674 228V304M716 228V304M758 228V304M800 228V304" stroke="#B9D1DE" stroke-opacity=".56" stroke-width="4" stroke-linecap="round"/>
    <path d="M892 228V304M934 228V304M976 228V304M1018 228V304M1060 228V304M1102 228V304M1144 228V304M1186 228V304M1228 228V304M1270 228V304M1312 228V304M1354 228V304M1396 228V304M1438 228V304M1480 228V304M1522 228V304" stroke="#C7AF89" stroke-opacity=".52" stroke-width="4" stroke-linecap="round"/>
    <path d="M180 290H1608" stroke="#F3EBD8" stroke-opacity=".28" stroke-width="3" stroke-linecap="round"/>
  </g>

  <g fill="#D9C29B" stroke="url(#ink)" stroke-width="6" stroke-linejoin="round">
    <path d="M244 332L274 284L304 332H244Z"/>
    <path d="M356 332L386 284L416 332H356Z"/>
    <path d="M468 332L498 284L528 332H468Z"/>
    <path d="M580 332L610 284L640 332H580Z"/>
    <path d="M692 332L722 284L752 332H692Z"/>
    <path d="M804 332L834 284L864 332H804Z"/>
    <path d="M916 332L946 284L976 332H916Z"/>
    <path d="M1028 332L1058 284L1088 332H1028Z"/>
    <path d="M1140 332L1170 284L1200 332H1140Z"/>
    <path d="M1252 332L1282 284L1312 332H1252Z"/>
    <path d="M1364 332L1394 284L1424 332H1364Z"/>
    <path d="M1476 332L1506 284L1536 332H1476Z"/>
  </g>

  <g>
    <path d="M200 346H1584" stroke="url(#ink)" stroke-width="8" stroke-linecap="round"/>
    <g fill="#E7E0D0" stroke="#1A2125" stroke-width="3">
      <circle cx="252" cy="356" r="5"/>
      <circle cx="306" cy="356" r="5"/>
      <circle cx="360" cy="356" r="5"/>
      <circle cx="414" cy="356" r="5"/>
      <circle cx="468" cy="356" r="5"/>
      <circle cx="522" cy="356" r="5"/>
      <circle cx="576" cy="356" r="5"/>
      <circle cx="630" cy="356" r="5"/>
      <circle cx="684" cy="356" r="5"/>
      <circle cx="738" cy="356" r="5"/>
      <circle cx="792" cy="356" r="5"/>
      <circle cx="846" cy="356" r="5"/>
      <circle cx="900" cy="356" r="5"/>
      <circle cx="954" cy="356" r="5"/>
      <circle cx="1008" cy="356" r="5"/>
      <circle cx="1062" cy="356" r="5"/>
      <circle cx="1116" cy="356" r="5"/>
      <circle cx="1170" cy="356" r="5"/>
      <circle cx="1224" cy="356" r="5"/>
      <circle cx="1278" cy="356" r="5"/>
      <circle cx="1332" cy="356" r="5"/>
      <circle cx="1386" cy="356" r="5"/>
      <circle cx="1440" cy="356" r="5"/>
      <circle cx="1494" cy="356" r="5"/>
    </g>
  </g>
</svg>
